<?xml version="1.0" standalone="no"?>
<!DOCTYPE svg PUBLIC "-//W3C//DTD SVG 20010904//EN"
 "http://www.w3.org/TR/2001/REC-SVG-20010904/DTD/svg10.dtd">
<svg version="1.0" xmlns="http://www.w3.org/2000/svg"
 width="1000.000000pt" height="1000.000000pt" viewBox="0 0 1000.000000 1000.000000"
 preserveAspectRatio="xMidYMid meet">
<metadata>
Created by potrace 1.14, written by Peter Selinger 2001-2017
</metadata>
<g transform="translate(0.000000,1000.000000) scale(0.100000,-0.100000)"
fill="#000000" stroke="none">
<path d="M351 9975 c-41 -13 -87 -33 -103 -45 -15 -11 -31 -20 -35 -20 -5 0
-36 -29 -69 -64 -64 -68 -107 -144 -130 -229 -21 -80 -19 -9156 2 -9237 47
-182 200 -330 379 -369 35 -7 1409 -10 4605 -10 3727 -1 4565 2 4610 12 188
45 340 200 379 385 8 39 11 1289 11 4605 0 3770 -3 4562 -14 4609 -43 186
-206 343 -391 377 -42 8 -1367 11 -4614 11 l-4556 -1 -74 -24z"/>
</g>
</svg>
